<svg fill="none" viewBox="0 0 134 52">
  <defs/>
  <path fill="#fff" d="M67.5 21.52v2.32H56.15V7.25H67.3v2.31h-8.55v4.72h7.4v2.17h-7.4v5.07h8.76zM74.18 24.07c-.98 0-1.96-.16-2.95-.47a7.6 7.6 0 01-2.5-1.38l1.03-1.63c.74.53 1.46.93 2.18 1.21.71.27 1.44.4 2.19.4.76 0 1.36-.15 1.8-.44.45-.3.68-.72.68-1.27 0-.5-.25-.88-.75-1.12-.5-.23-1.28-.49-2.34-.77-.76-.2-1.41-.4-1.96-.58-.54-.19-.99-.4-1.33-.66a2.3 2.3 0 01-.75-.86 3.76 3.76 0 01.12-2.85c.25-.48.58-.89 1-1.21.44-.35.95-.6 1.52-.78a7.66 7.66 0 014.44.16c.8.29 1.5.7 2.12 1.22l-1.1 1.55a5.72 5.72 0 00-3.61-1.36c-.66 0-1.21.14-1.66.42-.44.27-.65.7-.65 1.29 0 .24.04.45.14.63.09.17.24.32.44.44.22.12.49.24.82.35.34.1.76.2 1.26.33.82.2 1.53.4 2.12.6.6.2 1.1.45 1.5.73a2.52 2.52 0 011.14 2.26c0 1.17-.44 2.1-1.33 2.78-.87.67-2.06 1-3.57 1zM80.53 17.72c0-.86.15-1.67.44-2.43a6.1 6.1 0 011.26-2.01 6.42 6.42 0 014.62-1.87c1.27 0 2.35.28 3.25.84.92.54 1.6 1.28 2.06 2.2l-2.5.79c-.3-.51-.7-.91-1.2-1.2a3.5 3.5 0 00-3.1-.14 3.92 3.92 0 00-1.91 2.15 4.7 4.7 0 00-.28 1.67c0 .59.1 1.14.28 1.65a4 4 0 001.96 2.2 3.44 3.44 0 003.88-.72c.2-.2.35-.43.44-.66l2.52.75a5.06 5.06 0 01-2.03 2.26c-.95.58-2.07.87-3.36.87a6.36 6.36 0 01-4.6-1.9 6.72 6.72 0 01-1.29-2.03 6.66 6.66 0 01-.44-2.42zM97.61 24.07c-.59 0-1.14-.1-1.66-.28a4 4 0 01-2.17-2.03 3.78 3.78 0 01.07-3.09c.25-.46.6-.87 1.05-1.21.47-.34 1.02-.6 1.64-.8a7.46 7.46 0 012.1-.28c.58 0 1.14.06 1.7.17.56.1 1.07.22 1.52.4v-.85c0-.9-.25-1.6-.77-2.1-.51-.51-1.25-.77-2.22-.77-.65 0-1.3.12-1.93.37A9.4 9.4 0 0095 14.63L94.2 13a8.66 8.66 0 014.9-1.6c1.69 0 3 .44 3.93 1.3.93.85 1.4 2.08 1.4 3.68v4.42c0 .54.23.82.68.84v2.2a6.57 6.57 0 01-1.17.11c-.5 0-.89-.12-1.17-.37a1.62 1.62 0 01-.49-.96l-.07-.77a5.52 5.52 0 01-2.03 1.66c-.8.37-1.65.56-2.57.56zm.7-1.9c.63 0 1.2-.1 1.75-.32.56-.23 1-.55 1.31-.96.33-.28.5-.57.5-.89v-1.6a7.7 7.7 0 00-2.83-.54c-.92 0-1.68.2-2.27.6a1.8 1.8 0 00-.86 1.57c0 .6.22 1.12.68 1.54.45.4 1.02.6 1.72.6zM114.48 24.07c-.98 0-1.84-.23-2.59-.7a5.23 5.23 0 01-1.78-1.82v7.26h-2.56v-17.2h2.26v2.2a4.9 4.9 0 014.32-2.4c.84 0 1.61.17 2.31.51a5.88 5.88 0 013.02 3.39c.3.76.44 1.56.44 2.4 0 .9-.13 1.73-.4 2.5a5.67 5.67 0 01-2.85 3.36c-.65.34-1.37.5-2.17.5zm-.84-2.2c.55 0 1.04-.11 1.47-.35.45-.23.83-.54 1.15-.93a4.7 4.7 0 00.7-4.46 4 4 0 00-1.99-2.2 3.54 3.54 0 00-1.52-.33 4.07 4.07 0 00-2.85 1.47c-.23.29-.4.6-.49.94v3.2a4.75 4.75 0 001.43 1.9c.31.23.65.41 1 .55.36.14.73.21 1.1.21zM127.74 24.07a6.3 6.3 0 01-4.6-1.87 6.44 6.44 0 01-1.28-6.87 5.84 5.84 0 013.3-3.41 6.42 6.42 0 012.6-.51 6.2 6.2 0 014.56 1.89 6.35 6.35 0 011.61 5.28h-9.78c.04.54.17 1.04.37 1.47.22.44.5.82.82 1.15a3.67 3.67 0 002.5.98 4.19 4.19 0 001.94-.5c.27-.16.52-.37.74-.6.22-.23.39-.5.51-.77l2.2.63a5.14 5.14 0 01-2.1 2.26c-.97.58-2.1.87-3.39.87zm3.72-7.27a3.96 3.96 0 00-1.2-2.52 3.73 3.73 0 00-5.02 0c-.32.3-.59.66-.79 1.1-.2.44-.33.91-.37 1.42h7.38zM56.14 47.2V30.6h7.21c.75 0 1.43.16 2.05.47a5.42 5.42 0 012.69 2.97c.26.63.4 1.29.4 1.96a5.53 5.53 0 01-1.92 4.18c-.4.3-.85.54-1.33.7l3.9 6.3h-2.96l-3.6-5.76h-3.83v5.77h-2.61zm2.61-8.09h4.58c.37 0 .7-.08 1-.23.31-.17.58-.4.8-.68a3.6 3.6 0 00-.12-4.37c-.24-.28-.52-.5-.84-.65a2 2 0 00-.98-.26h-4.44v6.2zM76.4 47.43a6.11 6.11 0 01-6.28-6.33 6.6 6.6 0 011.7-4.44 6.4 6.4 0 011.98-1.38 6.36 6.36 0 012.6-.51 6.2 6.2 0 015.83 3.92 6.78 6.78 0 010 4.84 6.05 6.05 0 01-3.27 3.39 6.2 6.2 0 01-2.57.5zm-3.65-6.3c0 .58.1 1.13.28 1.63a3.9 3.9 0 001.91 2.17 3.5 3.5 0 004.04-.89c.33-.37.59-.8.77-1.3.19-.5.28-1.05.28-1.64a4.56 4.56 0 00-1.05-2.95 3.36 3.36 0 00-1.17-.86 3.24 3.24 0 00-2.85 0c-.43.22-.81.51-1.14.89a4.51 4.51 0 00-1.07 2.94zM90.44 47.43a6.11 6.11 0 01-6.28-6.33 6.6 6.6 0 011.7-4.44 6.4 6.4 0 011.98-1.38 6.36 6.36 0 012.6-.51 6.2 6.2 0 015.83 3.92 6.78 6.78 0 010 4.84A6.05 6.05 0 0193 46.92a6.2 6.2 0 01-2.56.5zm-3.65-6.3c0 .58.1 1.13.28 1.63a3.9 3.9 0 001.91 2.17 3.5 3.5 0 004.05-.89c.33-.37.58-.8.77-1.3.19-.5.28-1.05.28-1.64a4.56 4.56 0 00-1.05-2.95 3.36 3.36 0 00-1.17-.86 3.24 3.24 0 00-2.85 0c-.43.22-.81.51-1.14.89a4.51 4.51 0 00-1.08 2.94zM117.68 47.2h-2.57v-6.85c0-1.14-.19-1.97-.56-2.5-.38-.53-.92-.8-1.64-.8-.73 0-1.4.28-2 .82a4.51 4.51 0 00-1.29 2.08v7.24h-2.57v-6.84c0-1.15-.19-1.98-.56-2.5-.37-.53-.91-.8-1.61-.8-.73 0-1.4.27-2 .8a4.42 4.42 0 00-1.32 2.08v7.27H99V34.98h2.33v2.45a5.1 5.1 0 014.6-2.66c1.01 0 1.8.26 2.38.8.6.52.96 1.18 1.1 1.98a5.49 5.49 0 011.94-2.06 4.94 4.94 0 012.66-.72c.72 0 1.3.14 1.77.42.49.26.87.62 1.15 1.07.28.45.47.98.58 1.6.11.58.17 1.21.17 1.88v7.45z"/>
  <path fill="#fff" d="M46.05 21.54h21.57v2.29H46.05zM46.06 30.56h16.02v2.28H46.06z"/>
  <path fill="#fff" fill-rule="evenodd" d="M28.9 42.5L12.3 33.9l.29-.55 16.61 8.61-.28.54zM38.78 34.07V16.15h.62v17.92h-.62zM38.47 22.93l-9.34 5.47-.27-.56 9.3-5.43.31.52zM37.54 15.56l-9.18-5.23-11.53 6.7 8.98 5.15 11.73-6.62zm-9.19-5.93l-12.75 7.4 10.2 5.85 12.98-7.32-.53-.3-9.9-5.63z" clip-rule="evenodd"/>
  <path stroke="#fff" stroke-width="1.5" d="M12.39 33.93l-.27-.16-.15-11.65-7.73-4.5m8.15 16.3l10.2-5.79m-10.2 5.8l10.2 5.3m.5-11.4v11.58l-.5-.18m.5-11.4L4.25 17.04v-3.06l.46-.3L25.88 1.7l20.85 12.42v7.39h.67l.03-7.8L25.88 1 4.38 13.14l-.76.5v25.14L26.35 51l2.31-1.25v0l.46-.25.24-.13v0l17.99-10.52.02-7.5h-.64v7.15L29.28 48.7v-6.16l12.75-7.09-13.17-7.61m-5.76 0l-.52.29m6.28-.3l-.12.08V49l-2.4 1.3-22.1-11.89v-20.8m24.62 10.22l.27.56 9.34-5.47-.31-.52-9.3 5.43zM4.24 17.62v-.22m18.34 10.73v11.1m15.67-23.97l-9.9-5.63-12.75 7.4 10.2 5.85 12.98-7.32-.53-.3zM21.86 27.84l-9.13 5.19-.14-10.5 9.27 5.3zm18.97 7.63l-11.47 6.3V28.82l11.47 6.65zM28.36 10.33l9.18 5.23-11.73 6.62-8.98-5.15 11.53-6.7zM12.29 33.9L28.9 42.5l.28-.54-16.61-8.6-.3.53zm26.5-17.74v17.92h.61V16.15h-.62z"/>
</svg>
