<?xml version="1.0" standalone="no"?>
<!DOCTYPE svg PUBLIC "-//W3C//DTD SVG 20010904//EN"
 "http://www.w3.org/TR/2001/REC-SVG-20010904/DTD/svg10.dtd">
<svg version="1.0" xmlns="http://www.w3.org/2000/svg"
 width="71.000000pt" height="71.000000pt" viewBox="0 0 71.000000 71.000000"
 preserveAspectRatio="xMidYMid meet">
<metadata>
Created by potrace 1.14, written by Peter Selinger 2001-2017
</metadata>
<g transform="translate(0.000000,71.000000) scale(0.100000,-0.100000)"
fill="#000000" stroke="none">
<path d="M232 640 c-68 -39 -125 -70 -128 -70 -3 0 -19 -9 -35 -21 l-29 -20 0
-180 0 -179 40 -17 c22 -10 40 -21 40 -25 0 -5 4 -8 10 -8 5 0 60 -27 121 -60
l112 -60 116 68 c64 37 129 74 146 83 l30 16 0 183 0 183 -133 79 c-73 43
-137 78 -142 78 -6 0 -10 5 -10 10 0 17 -11 12 -138 -60z m263 -49 l130 -78 3
-160 2 -161 -104 -61 c-57 -34 -107 -61 -111 -61 -3 0 -5 12 -3 26 2 22 19 36
91 77 87 50 88 50 67 69 -18 17 -20 31 -20 141 l0 123 -42 21 c-24 11 -62 31
-86 44 -26 15 -45 20 -50 14 -8 -11 -44 -33 -119 -72 -29 -15 -53 -30 -53 -34
0 -4 34 -27 77 -50 l76 -42 46 24 c25 13 63 34 84 46 l37 23 0 -32 c0 -30 -6
-37 -68 -73 l-67 -40 0 -85 c-1 -47 -3 -84 -5 -82 -3 1 -15 5 -27 8 -21 6 -23
12 -23 83 l0 77 -130 74 c-79 45 -130 80 -130 90 0 14 260 169 285 169 6 0 68
-35 140 -78z m-49 -67 l45 -26 -66 -39 -66 -38 -44 21 c-41 20 -67 48 -45 48
6 0 31 13 58 30 26 16 53 30 60 30 7 0 34 -12 58 -26z m-297 -120 c2 -2 4 -39
6 -84 1 -44 4 -81 6 -83 2 -2 52 -27 111 -57 110 -56 118 -65 110 -117 -6 -30
-16 -29 -82 6 -30 17 -93 50 -140 74 l-85 45 -3 131 -3 131 38 -22 c21 -12 40
-23 42 -24z m101 -57 c22 -15 16 -26 -27 -50 -25 -14 -33 -15 -34 -5 0 7 -2
30 -4 50 -2 35 -1 36 22 27 14 -5 33 -15 43 -22z m270 -27 l0 -50 -42 26 c-24
15 -44 28 -46 29 -5 4 62 43 76 44 8 1 12 -15 12 -49z m-220 -66 c0 -42 -1
-45 -22 -39 -13 4 -34 14 -47 22 -23 15 -23 16 -5 26 10 6 21 13 24 17 5 7 29
18 43 19 4 1 7 -20 7 -45z m180 5 c27 -17 50 -33 50 -35 0 -5 -98 -54 -107
-54 -5 0 -8 27 -8 60 -1 33 3 60 7 60 4 0 30 -14 58 -31z"/>
</g>
</svg>
