<svg fill="none" viewBox="0 0 14 14">
  <defs/>
  <path fill="#fff" stroke="#fff" stroke-width=".25" d="M9.3 3.39h0a.4.4 0 000 .4c.07.1.18.2.34.2h2.81v2.34a1.89 1.89 0 00-.68-.14 2.03 2.03 0 000 4.07c.24 0 .47-.06.69-.15v2.35H3.98V9.63a.4.4 0 00-.2-.34.4.4 0 00-.4-.01h0a1.23 1.23 0 01-1.85-1.06A1.23 1.23 0 013.4 7.15h0a.4.4 0 00.39-.02.4.4 0 00.2-.33V4h2.82a.4.4 0 00.34-.2.4.4 0 000-.4h0a1.23 1.23 0 011.07-1.85A1.23 1.23 0 019.3 3.4zM8.22.75A2.03 2.03 0 006.24 3.2H3.6a.4.4 0 00-.28.12.4.4 0 00-.12.28v2.64a2.03 2.03 0 10-.42 4.01c.15 0 .29-.01.42-.04v2.64c0 .11.05.21.12.28a.4.4 0 00.28.12h9.25c.11 0 .21-.05.28-.12a.4.4 0 00.12-.28V9.44a.4.4 0 00-.23-.36.4.4 0 00-.43.07c-.22.2-.51.31-.82.31-.7 0-1.24-.55-1.24-1.24 0-.68.55-1.23 1.24-1.23.31 0 .6.11.82.31.11.1.28.13.42.07a.4.4 0 00.24-.36V3.6a.4.4 0 00-.12-.28.4.4 0 00-.28-.12h-2.64A2.03 2.03 0 008.23.75z"/>
</svg>
