<svg fill="none" viewBox="0 0 40 30">
  <defs/>
  <path fill="#fff" d="M39.02 9.75l-.65-1.41H24.8l-.7 1.24c-.18.32-.64 1.32-.93 3.58l-.95-1.25c-1.92-2.57-4.1-5.5-7.1-7.27A20.58 20.58 0 005.14 2H3.76A3.71 3.71 0 000 5.67a3.71 3.71 0 003.75 3.67h1.49c2.2 0 3.58.58 5.27 2.23 1.4 1.37 2.54 3.23 3.75 5.2 2.02 3.27 4.31 6.98 8.4 9.32a13.64 13.64 0 006.8 1.91c1.61 0 3.2-.32 4.76-.94a8.9 8.9 0 004.5-4A10.74 10.74 0 0040 17.88c0-5.59-.75-7.64-.98-8.13zm-26.1.84c-.23-.24-.45-.48-.69-.71-2.16-2.12-4.16-2.93-7-2.93H3.76a1.3 1.3 0 01-1.3-1.28c0-.7.58-1.28 1.3-1.28h1.39a18.26 18.26 0 018.72 2.3c.61.36 1.2.8 1.75 1.27l-2.7 2.63zm20.36 14.26c-1.22.49-2.5.76-3.82.76-1.78 0-3.65-.5-5.57-1.59-4.7-2.69-6.75-7.61-9.48-11.51l2.92-2.86c3.27 3.62 5.57 8.28 8.01 8.28 0-5.6.9-7.2.9-7.2H36.8s.76 1.65.76 7.15c0 2.74-1.22 5.73-4.28 6.97z"/>
</svg>
