<svg fill="none" viewBox="0 0 30 30">
  <defs/>
  <path fill="#fff" d="M18.52 7.09a2.64 2.64 0 100 5.28 2.64 2.64 0 000-5.28zm0 3.52a.88.88 0 110-1.76.88.88 0 010 1.76zM11.48 7.09a2.64 2.64 0 10.01 5.28 2.64 2.64 0 000-5.28zm0 3.52a.88.88 0 110-1.76.88.88 0 010 1.76z"/>
  <path fill="#fff" d="M27.36 14.12h-2.7v-4.4A9.7 9.7 0 0015 0a9.7 9.7 0 00-9.67 9.73v4.4h-2.7A2.64 2.64 0 000 16.75v1.76a2.64 2.64 0 002.64 2.63A2.71 2.71 0 005 19.77l.23.12-1.64 9.07A.88.88 0 004.45 30h21.1a.88.88 0 00.86-1.04l-1.64-9.07.23-.12c.45.8 1.33 1.38 2.36 1.38A2.64 2.64 0 0030 18.52v-1.76a2.64 2.64 0 00-2.64-2.64zm.88 4.4c0 .48-.4.87-.88.87-.5 0-.93-.4-.93-.87a.88.88 0 00-1.28-.79l-3.51 1.76a.88.88 0 10.78 1.57l.71-.35 1.36 7.53h-3.34v-2.7a.88.88 0 00-1.76 0v2.7h-3.51V23.8a.88.88 0 00-1.76 0v4.45h-3.51v-2.7a.88.88 0 00-1.76 0v2.7H5.5l1.36-7.53.7.35a.88.88 0 00.8-1.57l-3.52-1.76a.88.88 0 00-1.28.79c0 .46-.43.87-.93.87a.88.88 0 01-.88-.87v-1.76c0-.49.4-.88.88-.88h5.33a.88.88 0 000-1.76h-.88v-4.4c0-4.39 3.55-7.96 7.91-7.96a7.95 7.95 0 017.91 7.97v4.4h-.88a.88.88 0 000 1.75h5.33c.49 0 .88.4.88.88v1.76z"/>
  <path fill="#fff" d="M15 12.36A2.64 2.64 0 0012.36 15v1.76a2.64 2.64 0 005.28 0V15A2.64 2.64 0 0015 12.36zm.88 4.4a.88.88 0 01-1.76 0V15a.88.88 0 011.76 0v1.76z"/>
</svg>
