<svg fill="none" viewBox="0 0 30 30">
  <defs/>
  <path fill="#fff" d="M29.12 7.09c-.48 0-.88.4-.88.88v.88h-1.81V4.39A4.4 4.4 0 0022.03 0H7.97a4.4 4.4 0 00-4.4 4.4v4.45H1.76v-.88a.88.88 0 00-1.76 0V15a.88.88 0 001.76 0v-.88h1.81v4.4C3.57 24.85 8.7 30 15 30s11.43-5.15 11.43-11.48v-4.4h1.81V15A.88.88 0 0030 15V7.97c0-.49-.4-.88-.88-.88zM3.57 12.36H1.76v-1.75h1.81v1.75zm21.1 6.16A9.7 9.7 0 0115 28.24a9.7 9.7 0 01-9.67-9.72V8.7a2.62 2.62 0 002.64-.53 2.63 2.63 0 003.51 0 2.63 2.63 0 003.52 0 2.63 2.63 0 003.52 0 2.63 2.63 0 003.51 0 2.63 2.63 0 002.64.53v9.82zm0-12.3a.88.88 0 01-1.76 0 .88.88 0 00-1.76 0 .88.88 0 01-1.76 0 .88.88 0 00-1.75 0 .88.88 0 01-1.76 0 .88.88 0 00-1.76 0 .88.88 0 01-1.76 0 .88.88 0 00-1.75 0 .88.88 0 01-1.76 0 .88.88 0 00-1.76 0 .88.88 0 01-1.76 0V4.38a2.64 2.64 0 012.64-2.63h14.06a2.64 2.64 0 012.64 2.63v1.82zm3.57 6.14h-1.81v-1.75h1.81v1.75z"/>
  <path fill="#fff" d="M22.91 11.48a.88.88 0 00-1.76 0c0 .49-.4.88-.88.88H17.5a.87.87 0 01-.63-.25 2.64 2.64 0 00-3.72 0 .87.87 0 01-.63.25H9.73a.88.88 0 01-.88-.88.88.88 0 00-1.76 0c0 .44.1.86.3 1.22a3.5 3.5 0 003.22 4.94 3.52 3.52 0 003.47-4.04c.1-.07.2-.16.3-.25a.88.88 0 011.24 0c.1.1.2.18.3.25a3.52 3.52 0 106.7-.9c.18-.36.29-.78.29-1.22zm-12.3 4.4a1.76 1.76 0 01-1.76-1.9c.28.09.57.14.88.14h2.63c0 .96-.79 1.76-1.75 1.76zm8.78 0c-.96 0-1.75-.79-1.75-1.76h2.63c.3 0 .6-.05.88-.15a1.75 1.75 0 01-1.76 1.9z"/>
  <path fill="#fff" d="M16.76 17.64c-.49 0-.88.39-.88.88v.87h-1.76v-.87a.88.88 0 00-1.76 0v1.75c0 .49.4.88.88.88h3.52c.48 0 .88-.4.88-.88v-1.75c0-.49-.4-.88-.88-.88zM18.52 22.97h-7.04a.88.88 0 000 1.76h7.04a.88.88 0 000-1.76z"/>
</svg>
