<svg fill="none" viewBox="0 0 11 14">
  <defs/>
  <path stroke="#fff" stroke-linecap="round" stroke-linejoin="round" stroke-miterlimit="10" d="M7.52 8.92h.84c.94 0 1.86.71 1.7 1.63l-.16.86c-.24 1.01-.77 1.63-1.71 1.71H2.82c-.94-.08-1.45-.85-1.7-1.7l-.17-.87c-.21-.89.76-1.63 1.7-1.63h.81m-.85-5.11c-.2 0-.38.16-.38.37v.73c0 .2.17.37.38.37 0 0 .58 1.46.96 2.01.24.34.58 1.16 1.93 1.16s1.69-.82 1.93-1.16c.38-.55.96-2.01.96-2.01.21 0 .38-.17.38-.37v-.73c0-.2-.17-.37-.38-.37v-.55C8.39 1.98 7.63.88 5.5.88c-2.12 0-2.89 1.1-2.89 2.38v.55z"/>
</svg>
