<svg  viewBox="0 0 28 28">
  <defs/>
  <path fill-rule="evenodd" d="M14 28a14 14 0 100-28 14 14 0 000 28zm5.9-12.22l-.43-.4c-.5-.47-.53-.74-.13-1.28l.71-.92a43.9 43.9 0 00.68-.88c.4-.52.79-1.05 1-1.68.13-.42.01-.6-.43-.67a1.44 1.44 0 00-.23-.02h-2.63c-.33 0-.5.13-.62.4-.15.38-.31.75-.5 1.11-.41.82-.88 1.61-1.53 2.28l-.03.03c-.14.14-.3.3-.52.23-.3-.1-.39-.59-.38-.75v-2.92c-.06-.42-.16-.6-.59-.69h-2.73c-.36 0-.54.14-.74.36-.11.13-.15.21.09.25.45.08.7.37.77.8.11.7.1 1.4.04 2.1-.02.21-.06.42-.14.6-.13.3-.34.37-.62.19-.26-.17-.44-.4-.61-.65-.65-.89-1.18-1.85-1.6-2.86-.13-.29-.34-.47-.66-.47a68 68 0 00-2.36 0c-.48 0-.62.23-.42.65a27.98 27.98 0 003.06 5.25 7.53 7.53 0 002.32 2.1c1.08.6 2.23.77 3.46.72.57-.03.74-.17.76-.72.02-.38.07-.75.26-1.09.19-.33.47-.4.8-.18.17.1.3.23.44.37l.3.33.66.68c.42.42.92.66 1.54.6h2.42c.38-.02.59-.48.36-.9-.15-.29-.36-.55-.58-.8-.36-.42-.77-.8-1.18-1.17z" clip-rule="evenodd"/>
</svg>
