<svg fill="none" viewBox="0 0 36 30">
  <defs/>
  <path fill="#fff" fill-rule="evenodd" d="M35.94 6.48c-.14-.48-.49-.75-.86-1-.43-.25-.71-.62-1.18-.82-.22-.28-.78-.44-.97-.6-.09-.09-.09-.04-.21-.1-.43-.25-.8-.57-1.29-.72-.67-.6-1.51-1.07-2.25-1.62-.44-.19-.84-.42-1.18-.7C27.55.7 27.42.17 26.8.1c0-.06-.01-.11-.1-.1-.15.04-.2.15-.43.1-.8.46-1.38 1.14-2.15 1.62-.94.57-1.88 1.14-2.79 1.73-.48.25-.84.62-1.4.8-.12.26-.37.4-.64.51-.23.1-.4.53-.64.3-1.35-.54-2.43-1.35-3.65-2.02-.48-.46-1.3-.6-1.83-1.01-.77-.22-1.29-.68-2.25-.71-.69-.04-.99.29-1.61.3-2.71 1.7-6 2.85-8.8 4.46-.15.37-.15.88-.44 1.11a36.51 36.51 0 000 4.87c.2 4.55-.36 9.77.33 14.48.06.78-.13 1.8.1 2.43.03.2.29.2.43.3.27-.13.52.23.54 0 .24.28.2.83.86.71.68.1.82-.3 1.18-.5.33-.23.62-.5.86-.81.68-.44 1.2-1.04 1.82-1.52.6-.51 1.2-1.04 1.83-1.52.32-.24.67-.45.96-.71.44-.13.63-.5 1.08-.61 1.48.7 2.73 1.61 4.19 2.33.69.4 1.38.78 1.93 1.32.42.1.77.28 1.07.5.32-.02.33.23.64.2-.04.32.23.33.54.3.82-.3 1.44-.79 2.04-1.3.68-.45 1.36-.88 1.93-1.43.84-.29 1.23-1 2.04-1.31.24-.32.73-.4.97-.71.38-.18.62-.5 1.07-.6 1.45.88 2.46 2.2 3.76 3.23.37.2.5.61.97.71.29.3.5.68.96.81.35.24.36.8.97.81.4.2.5.69 1.18.6.42-.18.54-.5.64-1 .1-.53-.07-1.1 0-1.62.18-.38.35-.76.43-1.22.58-4.5.19-9.89.43-14.69.2-.68.1-1.6.11-2.43 0-.85.13-1.7 0-2.33zM2.34 28.36c-.06-.05.08-.13.1-.1.06.05-.07.13-.1.1zm31.35-16.71c-.27 4.54.03 9.7-.22 14.38-1.43-.57-2.47-1.52-3.76-2.23-1.4-.57-2.23-1.67-3.75-2.12-.91.15-1.34.76-2.04 1.11-.53.48-1.25.79-1.72 1.32-1.3.76-2.38 1.74-3.54 2.63-.42-.08-.48-.5-.75-.7-.2-.3-.62-.38-.76-.72-.85-.34-1.41-.96-2.36-1.21-.81-.38-1.59-.8-2.47-1.12-.25-.3-.67-.44-.86-.8-.33-.2-.59-.46-1.07-.51-.7-.06-1.14.14-1.5.4-.19.4-.78.41-.97.81-.38.21-.58.6-.97.81-.29.3-.5.68-.96.81-.54.65-1.26 1.11-1.72 1.82-.35.25-.56.62-.86.92-.07.23-.35.27-.43.5-.12.03-.3.58-.32.1.31-.4-.13-.95-.1-1.41C2.43 20.2 2.23 14.04 1.9 8c-.02-.32.38-.24.54-.4.16-.12.43-.13.53-.3.46-.14.7-.49 1.18-.61.78-.42 1.44-.94 2.26-1.32.7-.48 1.66-.73 2.36-1.21.54-.07.67-.52 1.29-.51.35-.2.67-.44 1.07-.6 1.09.75 2.33 1.38 3.44 2.12.54.4 1.21.68 1.72 1.11.63.28 1 .82 1.71 1.01a4.75 4.75 0 002.36-1c.68-.45 1.4-.84 2.04-1.32 1.43-.78 2.58-1.83 3.98-2.64.08-.1.2-.15.32-.2.64.5 1.2 1.1 2.04 1.42.72.43 1.43.88 2.25 1.21.4.51.97.85 1.5 1.22.46.41.93.81 1.5 1.11-.1 1.47-.22 3-.31 4.56zm-5.9-2.53c-.6-.58-.75-1.6-1.51-2.03-.65 0-.74.52-.86 1.02.07.67.46 1.05.64 1.62a5.4 5.4 0 01-2.14.4c-.28.35-.9.37-.86 1.01.16.2.23.33.54.4.28.08.73-.05 1.07 0 .67-.17 1.3-.38 2.04-.5.5.4.72 1.07 1.07 1.62.4.5.49 1.3 1.61 1.12.13-.19.28-.35.43-.5-.18-1.12-.9-1.72-1.29-2.64.6-.05.96-.32 1.5-.4.5-.14.97-.31.97-.92-.36-1.39-2.19-.27-3.22-.2zm-1.94 2.33c-.44.48-1.61.75-1.18 1.72.51.25.79-.24 1.18-.4.3-.29.78-.42.64-1.12-.22-.06-.3-.25-.64-.2zm-13.96.1c-.67.4-2.2.88-1.5 1.92.69.04 1-.28 1.29-.6.5-.13.71-.54.86-1.02-.18-.14-.27-.36-.65-.3zm2.9 2.43c-.02-.25-.3-.46-.43-.6-.17-.2-.31-.5-.64-.51-.37-.05-.33.3-.54.4.07.55.46.78.65 1.22.34.31.44.85 1.07.9.02-.07.09-.11.21-.1.38-.38.04-1.04-.32-1.31zm7.41.6c-.07.38-.44.47-.32 1.02.12.02.16.11.21.2.52.21.94-.25 1.3-.5.38-.32.81-.58.85-1.22-.64-.76-1.55.18-2.04.5zm-13.64-.4c-.57.47-1.46.65-1.5 1.62.42.47 1.04 0 1.4-.2.26-.4.74-.58.75-1.22-.2-.09-.27-.28-.65-.2zm12.46 2.03c-.2-.08-.4-.17-.65-.2-.01.11-.17.1-.32.1-.38.33-.91.67-1.29.9-.03.03-.07.17-.1.21-.03.03-.19-.03-.22 0-.04.05-.09.26-.1.3-.06.13-.14.2-.11.4.34.72 1.34.29 1.72-.1.38-.47 1.21-.53 1.17-1.41-.08-.02-.12-.08-.1-.2zm-16 1.31c.22.1.17.45.54.4.58-.18 1.05-.48 1.07-1.2-.64-.52-1.61.07-1.6.8zm10.85-1h-.22c-.12.11-.12.35-.1.6.33.5.94 1.44 1.71.91.13-.6-.23-.72-.43-1.01-.37-.13-.36-.6-.96-.5z" clip-rule="evenodd"/>
</svg>
