<svg fill="none" viewBox="0 0 26 30">
  <defs/>
  <path fill="#fff" d="M23.05 0h-9.46a4.27 4.27 0 00-4.14 4.38v13.75c0 .34.27.62.6.62a.6.6 0 00.59-.63V4.38a3.05 3.05 0 012.95-3.13h7.1c-.38.52-.6 1.17-.6 1.88v18.12h-4.14a.6.6 0 00-.59.63c0 .34.27.62.6.62h4.72a.6.6 0 00.6-.63V3.14c0-1.04.79-1.88 1.77-1.88a.6.6 0 00.59-.62.6.6 0 00-.6-.63z"/>
  <path fill="#fff" d="M18.32 17.5H7.68a4.27 4.27 0 00-4.13 4.38v3.75a3.05 3.05 0 01-2.96 3.12.6.6 0 00-.59.63c0 .34.26.62.6.62h11.8a4.27 4.27 0 004.15-4.38v-5c0-1.03.8-1.87 1.77-1.87a.6.6 0 00.59-.63.6.6 0 00-.6-.62zm-2.96 3.13v5a3.05 3.05 0 01-2.95 3.12H3.48c.77-.8 1.25-1.9 1.25-3.13v-3.75a3.05 3.05 0 012.95-3.12h8.28c-.38.52-.6 1.17-.6 1.88z"/>
  <path fill="#fff" d="M18.32 17.5h-1.18a.6.6 0 00-.6.63c0 .34.27.62.6.62h1.18c.98 0 1.77.84 1.77 1.88v1.25c0 .34.27.62.6.62a.6.6 0 00.58-.63v-1.25a3.05 3.05 0 00-2.95-3.12zM23.05 0a.6.6 0 00-.6.63c0 .34.27.62.6.62.97 0 1.77.84 1.77 1.88v.62h-4.14a.6.6 0 00-.59.63c0 .34.27.62.6.62h4.72a.6.6 0 00.59-.62V3.12A3.05 3.05 0 0023.05 0zM18.32 3.75H12.4a.6.6 0 00-.6.63c0 .34.27.62.6.62h5.9a.6.6 0 00.6-.62.6.6 0 00-.6-.63zM18.32 7.5H12.4a.6.6 0 00-.6.63c0 .34.27.62.6.62h5.9a.6.6 0 00.6-.62.6.6 0 00-.6-.63zM18.32 11.25H12.4a.6.6 0 00-.6.63c0 .34.27.62.6.62h5.9a.6.6 0 00.6-.63.6.6 0 00-.6-.62zM18.32 15H12.4a.6.6 0 00-.6.63c0 .34.27.62.6.62h5.9a.6.6 0 00.6-.63.6.6 0 00-.6-.62zM13.6 21.25H6.5a.6.6 0 00-.6.63c0 .34.27.62.6.62h7.1a.6.6 0 00.58-.63.6.6 0 00-.59-.62zM13.6 25H6.5a.6.6 0 00-.6.63c0 .34.27.62.6.62h7.1a.6.6 0 00.58-.63.6.6 0 00-.59-.62z"/>
</svg>
