<svg fill="none" viewBox="0 0 28 28">
  <defs/>
  <path fill="#C6C4C2" d="M16.68 14a2.68 2.68 0 11-5.36 0 2.68 2.68 0 015.36 0z"/>
  <path fill="#C6C4C2" d="M20.27 9.26a2.5 2.5 0 00-.6-.93 2.49 2.49 0 00-.93-.6c-.28-.1-.7-.24-1.5-.27-.84-.04-1.1-.05-3.24-.05-2.15 0-2.4 0-3.25.05-.78.03-1.2.16-1.5.27-.34.13-.66.34-.92.6a2.5 2.5 0 00-.6.93c-.1.28-.24.7-.27 1.5-.04.84-.05 1.1-.05 3.24 0 2.15 0 2.4.05 3.25.03.78.16 1.2.27 1.5.13.34.34.66.6.92.26.26.58.47.93.6.28.1.7.24 1.5.27.84.04 1.1.05 3.24.05 2.15 0 2.4 0 3.25-.05.78-.03 1.2-.16 1.5-.27.7-.27 1.25-.83 1.52-1.53.1-.28.24-.7.27-1.5.04-.84.05-1.1.05-3.24 0-2.15 0-2.4-.05-3.25a4.44 4.44 0 00-.27-1.5zM14 18.13a4.13 4.13 0 110-8.26 4.13 4.13 0 010 8.26zm4.3-7.46a.96.96 0 110-1.93.96.96 0 010 1.93z"/>
  <path fill="#C6C4C2" d="M14 0a14 14 0 100 28 14 14 0 000-28zm8 17.31a5.9 5.9 0 01-.38 1.96 4.11 4.11 0 01-2.35 2.35c-.52.2-1.1.33-1.96.37a57 57 0 01-3.31.05 57 57 0 01-3.31-.05 5.9 5.9 0 01-1.96-.37 3.94 3.94 0 01-1.42-.93c-.4-.4-.72-.89-.93-1.42a5.9 5.9 0 01-.37-1.96c-.04-.85-.05-1.13-.05-3.31s.01-2.46.05-3.31a5.9 5.9 0 01.37-1.96c.2-.53.52-1.02.93-1.42.4-.4.89-.73 1.42-.93a5.9 5.9 0 011.96-.37c.85-.04 1.13-.05 3.31-.05s2.46.01 3.31.05a5.9 5.9 0 011.96.37c.53.2 1.02.52 1.42.93.4.4.73.89.93 1.42.2.52.33 1.1.37 1.96.04.85.05 1.13.05 3.31s-.01 2.46-.05 3.31z"/>
</svg>
