<svg fill="none" viewBox="0 0 28 30">
  <defs/>
  <path fill="#fff" d="M14 0c-.93 0-1.81.38-2.58.98A2.64 2.64 0 0010.3.71a2.56 2.56 0 00-2.6 2.5c0 .77.36 1.46.94 1.92l-.22.57c-1-.18-1.96-.28-2.84-.29C3.3 5.4 1.4 6.01.5 7.5a3.96 3.96 0 00-.3 3.15c.3 1.11.96 2.27 1.88 3.45.23.3.5.6.76.9-.27.3-.53.6-.76.9a10.11 10.11 0 00-1.88 3.44 4.04 4.04 0 00.23 3.03c-.1.26-.16.54-.16.84 0 1.38 1.17 2.5 2.6 2.5.9 0 1.71-.46 2.18-1.15 1.03.05 2.16-.05 3.37-.26.13.38.28.73.44 1.08.6 1.35 1.32 2.47 2.17 3.28A4.36 4.36 0 0014 30c1.1 0 2.13-.52 2.98-1.34.85-.81 1.58-1.93 2.17-3.28.16-.35.3-.7.44-1.08l1.17.18a2.58 2.58 0 002.53 1.96c1.42 0 2.6-1.13 2.6-2.5v-.01a3.8 3.8 0 001.62-1.43c.56-.92.61-2.04.3-3.16-.3-1.11-.96-2.26-1.88-3.44-.23-.3-.5-.6-.76-.9.27-.3.53-.6.76-.9a10.16 10.16 0 001.88-3.45c.31-1.12.26-2.23-.3-3.15-.9-1.5-2.81-2.1-5.08-2.09-.88 0-1.83.11-2.84.3-.13-.39-.28-.75-.44-1.1a10.21 10.21 0 00-2.17-3.28A4.35 4.35 0 0014 0zm0 1.43c.64 0 1.28.28 1.94.91.66.63 1.3 1.6 1.84 2.84.12.26.23.55.34.84-1.32.33-2.7.8-4.12 1.4-1.42-.6-2.8-1.07-4.12-1.4L10 5.7l.28.01c1.42 0 2.6-1.12 2.6-2.5 0-.45-.13-.88-.35-1.25.5-.35.98-.53 1.46-.53zm-3.71.71c.62 0 1.11.47 1.11 1.07 0 .6-.49 1.08-1.11 1.08-.63 0-1.12-.48-1.12-1.08 0-.6.5-1.07 1.12-1.07zm-4.72 4.7c.73 0 1.54.08 2.4.24a26.36 26.36 0 00-.8 4.13c-1.25.88-2.36 1.8-3.32 2.73l-.59-.7a8.95 8.95 0 01-1.63-2.96c-.24-.87-.18-1.54.14-2.07.51-.86 1.8-1.38 3.8-1.37zm16.86 0c2-.01 3.29.51 3.8 1.37.32.53.38 1.2.14 2.07-.24.86-.8 1.89-1.63 2.96-.18.23-.39.47-.6.7a28.2 28.2 0 00-3.31-2.73 26.49 26.49 0 00-.8-4.13c.86-.16 1.67-.23 2.4-.24zm-13 .56c.88.22 1.8.5 2.74.84-.57.27-1.13.56-1.7.88-.57.32-1.11.66-1.65 1 .16-.97.38-1.88.62-2.72zm9.14 0c.24.84.45 1.74.6 2.7a36.25 36.25 0 00-3.34-1.86c.95-.35 1.87-.62 2.74-.84zM14 8.98a33.76 33.76 0 015.42 3 30.95 30.95 0 010 6.03 33.77 33.77 0 01-5.43 3 34.37 34.37 0 01-5.41-3 31.18 31.18 0 010-6.01A33.43 33.43 0 0114 8.98zm0 3.52a2.56 2.56 0 00-2.6 2.5c0 1.37 1.17 2.5 2.6 2.5 1.43 0 2.6-1.13 2.6-2.5s-1.17-2.5-2.6-2.5zm-7 .65a33.31 33.31 0 000 3.7c-.78-.6-1.5-1.23-2.14-1.85A25.6 25.6 0 017 13.15zm14 0c.78.61 1.5 1.23 2.14 1.85-.64.62-1.36 1.24-2.14 1.85a33.56 33.56 0 000-3.7zM3.85 16.07c.96.93 2.08 1.84 3.32 2.72.18 1.47.44 2.86.8 4.12-.92.16-1.76.24-2.51.24a2.57 2.57 0 00-2.6-2.44c-.5 0-.95.14-1.34.37a3.2 3.2 0 01.1-1.37 8.9 8.9 0 011.64-2.95c.18-.23.39-.45.6-.69zm20.3 0l.59.7a8.9 8.9 0 011.63 2.94c.24.86.18 1.55-.14 2.08-.18.3-.44.55-.8.75a2.65 2.65 0 00-2.14-1.1c-1.1 0-2.05.68-2.43 1.62l-.84-.14c.36-1.26.63-2.65.8-4.13 1.25-.88 2.37-1.79 3.33-2.72zM8.82 19.9a36.57 36.57 0 003.35 1.86c-.95.35-1.87.62-2.74.84-.24-.84-.45-1.74-.6-2.7zm10.36 0c-.16.96-.36 1.87-.6 2.71-.88-.22-1.8-.5-2.75-.85a37.18 37.18 0 003.35-1.86zM2.86 22.14c.62 0 1.11.47 1.11 1.07 0 .6-.49 1.08-1.11 1.08-.63 0-1.12-.48-1.12-1.08 0-.6.5-1.07 1.12-1.07zM14 22.6c1.42.6 2.8 1.05 4.12 1.38-.1.3-.23.58-.35.85a8.98 8.98 0 01-1.84 2.84c-.66.63-1.3.91-1.94.91-.64 0-1.28-.28-1.94-.91a8.98 8.98 0 01-1.84-2.84c-.12-.26-.23-.55-.34-.84 1.32-.33 2.71-.8 4.13-1.4zm9.28.28c.62 0 1.11.47 1.11 1.07 0 .6-.49 1.07-1.11 1.07-.63 0-1.12-.47-1.12-1.07 0-.6.5-1.07 1.12-1.07z"/>
</svg>
