<svg fill="none" viewBox="0 0 11 14">
    <path fill-rule="evenodd" d="M0 5.09a5.5 5.5 0 0111 0 5.4 5.4 0 01-1.17 3.66l-3.88 5.03a.55.55 0 01-.45.22.57.57 0 01-.45-.22L1.17 8.74A5.4 5.4 0 01.01 5.1zm5.5 7.46L8.93 8.1c.67-.84 1-1.88.95-2.93A4.4 4.4 0 005.5 1.08a4.4 4.4 0 00-4.38 4.09c-.05 1.05.28 2.1.95 2.93l3.43 4.45zM4.17 3.18a2.45 2.45 0 013.01.3 2.28 2.28 0 01-.78 3.76 2.46 2.46 0 01-2.6-.5 2.3 2.3 0 01-.52-2.53c.19-.42.5-.78.89-1.03zm.62 2.96a1.3 1.3 0 001.6-.16 1.21 1.21 0 00-.42-2.02 1.31 1.31 0 00-1.39.28 1.22 1.22 0 00-.27 1.35c.1.22.27.41.48.55z" clip-rule="evenodd"/>
  <defs>
      <path d="M0 0h11v14H0z"/>
 </defs>
</svg>

