<svg fill="none" viewBox="0 0 85 34">
  <defs/>
  <path fill="#fff" d="M42.82 14.13v1.48h-7.21V5h7.08v1.48h-5.42V9.5h4.7v1.39h-4.7v3.24h5.55zM47.05 15.76c-.62 0-1.24-.1-1.86-.3-.62-.2-1.14-.5-1.59-.88l.65-1.04c.47.34.93.6 1.38.77.45.17.92.26 1.4.26a2 2 0 001.13-.29.91.91 0 00.43-.8c0-.33-.16-.57-.47-.72a9.42 9.42 0 00-1.48-.5c-.49-.12-.9-.25-1.25-.37a3.2 3.2 0 01-.84-.42 1.47 1.47 0 01-.47-.55 2.43 2.43 0 01.07-1.82c.16-.31.37-.57.64-.78.27-.22.6-.38.96-.5a4.82 4.82 0 012.81.1c.5.19.96.45 1.35.79l-.7.98a3.61 3.61 0 00-2.3-.86c-.4 0-.76.09-1.04.27-.28.17-.42.44-.42.82 0 .16.03.3.1.4.05.11.14.2.27.29.14.08.31.15.52.22l.8.21c.52.13.97.26 1.35.39.38.13.7.28.95.46a1.61 1.61 0 01.72 1.45c0 .75-.28 1.34-.84 1.78-.55.43-1.31.64-2.27.64zM51.08 11.7c0-.55.1-1.07.28-1.56.2-.49.46-.91.8-1.28a4.04 4.04 0 012.93-1.2c.8 0 1.5.18 2.07.54a3.3 3.3 0 011.3 1.4l-1.59.51a2 2 0 00-.75-.76 2.2 2.2 0 00-1.97-.09c-.28.13-.52.31-.73.55-.2.23-.37.5-.49.83-.11.32-.17.67-.17 1.06 0 .38.06.73.17 1.06a2.54 2.54 0 001.24 1.4 2.17 2.17 0 002.47-.46c.13-.13.22-.27.28-.42l1.6.48a3.23 3.23 0 01-1.3 1.45 4 4 0 01-2.12.55 4 4 0 01-2.92-1.2 4.3 4.3 0 01-.82-1.3 4.3 4.3 0 01-.28-1.56zM61.92 15.76c-.38 0-.73-.06-1.05-.18-.32-.12-.6-.3-.83-.52a2.56 2.56 0 01-.55-.78 2.44 2.44 0 01.04-1.97c.16-.3.38-.56.67-.78.3-.22.64-.39 1.04-.5a5.6 5.6 0 013.38.18v-.54a1.8 1.8 0 00-.5-1.35c-.32-.33-.79-.5-1.4-.5-.42 0-.83.09-1.23.25-.4.15-.8.37-1.23.65l-.5-1.04c1-.68 2.03-1.02 3.1-1.02 1.07 0 1.9.28 2.5.82.59.55.88 1.34.88 2.37v2.82c0 .35.15.53.43.54v1.4a4.14 4.14 0 01-.74.08c-.31 0-.56-.08-.74-.24a1.04 1.04 0 01-.3-.61l-.05-.5a3.51 3.51 0 01-2.92 1.42zm.44-1.2c.4 0 .77-.08 1.11-.22.36-.15.64-.35.83-.6.21-.19.31-.38.31-.58v-1.03a4.86 4.86 0 00-1.79-.34c-.58 0-1.06.13-1.43.39-.37.25-.55.58-.55 1 0 .39.14.72.43.98.28.26.65.4 1.1.4zM72.62 15.76c-.62 0-1.17-.15-1.65-.44-.47-.3-.84-.7-1.12-1.17v4.65h-1.63v-11h1.44v1.4c.3-.47.67-.84 1.14-1.12.47-.28 1-.42 1.6-.42.53 0 1.02.11 1.46.33a3.73 3.73 0 011.91 2.17c.2.49.29 1 .29 1.54 0 .57-.09 1.1-.26 1.6a3.6 3.6 0 01-1.8 2.15c-.42.21-.88.31-1.38.31zm-.53-1.4c.34 0 .65-.08.93-.23.29-.14.53-.34.72-.6.21-.24.37-.53.48-.85a3.04 3.04 0 00-.03-2 2.55 2.55 0 00-1.26-1.4c-.3-.14-.62-.21-.96-.21-.21 0-.43.04-.65.12a2.58 2.58 0 00-1.16.82c-.15.18-.25.38-.31.6v2.04a3.04 3.04 0 00.9 1.22c.2.15.41.26.64.35.23.1.46.14.7.14zM81.03 15.76c-.6 0-1.15-.1-1.64-.31a4 4 0 01-1.28-.88 4.12 4.12 0 01-1.1-2.84 4.08 4.08 0 011.1-2.86 4.04 4.04 0 012.93-1.21 3.9 3.9 0 012.9 1.21 4.1 4.1 0 011.02 3.38h-6.21c.03.35.1.66.24.94.13.28.3.53.52.74a2.31 2.31 0 001.58.63 2.64 2.64 0 001.23-.31c.18-.12.33-.25.47-.4.14-.15.25-.31.33-.5l1.4.41a3.28 3.28 0 01-1.34 1.45c-.61.37-1.33.55-2.15.55zm2.36-4.65a2.55 2.55 0 00-.76-1.61 2.35 2.35 0 00-3.18 0c-.21.19-.38.42-.5.7-.14.28-.22.59-.24.91h4.68zM35.6 30.56V19.95h4.58c.48 0 .91.1 1.3.3a3.47 3.47 0 011.7 1.9c.18.4.26.83.26 1.25a3.57 3.57 0 01-1.21 2.68c-.26.2-.54.35-.85.45l2.48 4.03h-1.88l-2.28-3.69h-2.43v3.7H35.6zm1.67-5.17h2.9c.24 0 .45-.05.64-.15.2-.1.36-.25.5-.43a2.31 2.31 0 00.44-1.4c0-.28-.04-.53-.14-.77a1.98 1.98 0 00-.37-.63 1.56 1.56 0 00-.54-.42c-.2-.1-.4-.16-.62-.16h-2.81v3.96zM48.46 30.71a3.88 3.88 0 01-3.7-2.5 4.38 4.38 0 01.8-4.39 4 4 0 012.9-1.21 3.9 3.9 0 013.7 2.51 4.26 4.26 0 01-.82 4.38 3.83 3.83 0 01-2.88 1.21zm-2.31-4.03a2.7 2.7 0 00.67 1.88c.2.23.44.42.72.55a2.2 2.2 0 002.56-.56c.2-.24.37-.52.49-.84.12-.32.18-.67.18-1.05a2.94 2.94 0 00-.67-1.88c-.2-.24-.45-.42-.74-.55a2.04 2.04 0 00-1.8 0c-.28.14-.53.32-.73.56a2.89 2.89 0 00-.68 1.89zM57.37 30.71a3.88 3.88 0 01-3.7-2.5 4.38 4.38 0 01.8-4.39 4 4 0 012.9-1.21 3.9 3.9 0 013.7 2.51 4.26 4.26 0 01-.82 4.38 3.83 3.83 0 01-2.88 1.21zm-2.31-4.03a2.7 2.7 0 00.67 1.88c.2.23.44.42.72.55a2.2 2.2 0 002.56-.56c.2-.24.37-.52.49-.84.12-.32.18-.67.18-1.05a2.94 2.94 0 00-.67-1.88c-.2-.24-.45-.42-.74-.55a2.04 2.04 0 00-1.8 0c-.28.14-.53.32-.73.56a2.9 2.9 0 00-.68 1.89zM74.64 30.56h-1.62v-4.38c0-.72-.12-1.26-.36-1.6-.24-.33-.58-.5-1.04-.5-.46 0-.89.17-1.27.52-.38.34-.65.78-.81 1.33v4.63H67.9v-4.38c0-.73-.12-1.27-.36-1.6-.24-.33-.58-.5-1.02-.5-.47 0-.89.17-1.28.5-.38.34-.66.79-.82 1.34v4.64H62.8v-7.81h1.48v1.57a3.25 3.25 0 012.91-1.7c.65 0 1.15.16 1.52.5.37.34.6.76.7 1.27a3.5 3.5 0 011.22-1.32c.5-.3 1.06-.46 1.69-.46.45 0 .83.1 1.13.27.3.17.54.4.72.69.18.29.3.63.37 1.01s.1.79.1 1.22v4.76z"/>
  <path fill="#fff" d="M29.21 14.14H42.9v1.46H29.21zM29.21 19.92h10.16v1.46H29.21z"/>
  <path fill="#fff" fill-rule="evenodd" d="M18.34 27.56L7.8 22.06l.18-.35 10.54 5.5-.18.35zM24.6 22.16V10.7h.4v11.46h-.4zM24.4 15.04l-5.92 3.5-.17-.36 5.9-3.48.2.34zM23.81 10.32L18 6.97l-7.32 4.29 5.7 3.3 7.44-4.24zM18 6.52l-8.1 4.74L16.38 15l8.23-4.68-.34-.2L18 6.53z" clip-rule="evenodd"/>
  <path stroke="#fff" stroke-width="1.18" d="M7.86 22.07l-.17-.1-.1-7.45-4.9-2.88m5.17 10.43l6.47-3.7m-6.47 3.7l6.47 3.4m.32-7.3v7.41l-.32-.12m.32-7.28L2.7 11.26V9.3l.3-.2 13.43-7.65L29.64 9.4v4.72h.43l.01-4.99L16.42 1 2.78 8.77l-.48.32v16.1L16.7 33l1.47-.8v0l.29-.16.15-.08v0l11.41-6.74.02-4.8h-.4V25l-11.08 6.53v-3.95l8.1-4.53-8.36-4.87m-3.66 0l-.32.18m3.98-.18l-.08.04v13.5l-1.52.84L2.7 24.95V11.64m15.62 6.54l.17.36 5.93-3.5-.2-.34-5.9 3.48zM2.69 11.64v-.15m11.64 6.87v7.1m9.93-15.33L18 6.52l-8.1 4.74L16.38 15l8.23-4.68-.34-.2zm-10.4 8.04L8.09 21.5l-.1-6.73 5.89 3.4zm12.04 4.9l-7.28 4.02v-8.28l7.28 4.25zm-7.91-16.1l5.82 3.35-7.44 4.23-5.7-3.3L18 6.98zM7.79 22.05l10.55 5.51.18-.35-10.54-5.5-.18.34zM24.6 10.7v11.46h.4V10.7h-.4z"/>
</svg>
