<svg width="134" height="52" viewBox="0 0 134 52" fill="none" xmlns="http://www.w3.org/2000/svg">
<path d="M67.5065 21.5228V23.8354H56.1353V7.25006H67.2963V9.56266H58.7504V14.2813H66.1522V16.4537H58.7504V21.5228H67.5065Z" fill="white"/>
<path d="M74.177 24.069C73.1963 24.069 72.2156 23.9132 71.2349 23.6018C70.2698 23.2748 69.437 22.8153 68.7365 22.2236L69.7639 20.5884C70.4955 21.1179 71.2194 21.5228 71.9354 21.8031C72.6515 22.0678 73.3831 22.2002 74.1303 22.2002C74.893 22.2002 75.4923 22.0523 75.9282 21.7564C76.3796 21.4605 76.6053 21.04 76.6053 20.495C76.6053 19.981 76.3563 19.6073 75.8581 19.3737C75.36 19.1401 74.5817 18.8831 73.5232 18.6028C72.7604 18.4004 72.1066 18.2057 71.5618 18.0188C71.017 17.832 70.5734 17.6139 70.2309 17.3648C69.8884 17.1156 69.6394 16.8275 69.4837 16.5005C69.328 16.1734 69.2502 15.7763 69.2502 15.3091C69.2502 14.6862 69.367 14.1334 69.6005 13.6506C69.8495 13.1678 70.1842 12.7629 70.6045 12.4359C71.0403 12.0933 71.5463 11.8363 72.1222 11.665C72.6982 11.4937 73.3208 11.4081 73.9902 11.4081C74.9086 11.4081 75.7647 11.5482 76.5586 11.8285C77.3525 12.1089 78.0608 12.5138 78.6834 13.0432L77.586 14.585C76.4497 13.6817 75.2433 13.2301 73.9668 13.2301C73.313 13.2301 72.7604 13.3703 72.309 13.6506C71.8731 13.9153 71.6552 14.3436 71.6552 14.9354C71.6552 15.1845 71.7019 15.3948 71.7953 15.5661C71.8887 15.7374 72.0366 15.8853 72.239 16.0099C72.4569 16.1345 72.7293 16.2513 73.0562 16.3603C73.3986 16.4537 73.8189 16.5628 74.3171 16.6873C75.1421 16.8898 75.8504 17.0922 76.4419 17.2947C77.049 17.4971 77.5471 17.7385 77.9362 18.0188C78.3254 18.2836 78.6134 18.6028 78.8002 18.9766C78.987 19.3348 79.0804 19.7708 79.0804 20.2847C79.0804 21.4527 78.6367 22.3793 77.7494 23.0645C76.8777 23.7342 75.6869 24.069 74.177 24.069Z" fill="white"/>
<path d="M80.5302 17.7152C80.5302 16.8586 80.6781 16.0488 80.9739 15.2858C81.2696 14.5227 81.6899 13.853 82.2347 13.2768C82.7951 12.7006 83.4645 12.249 84.2428 11.922C85.0211 11.5794 85.8928 11.4081 86.858 11.4081C88.1188 11.4081 89.2007 11.6884 90.1035 12.249C91.022 12.7941 91.7069 13.526 92.1583 14.4448L89.6599 15.239C89.3641 14.7251 88.9672 14.328 88.4691 14.0477C87.9709 13.7518 87.4183 13.6039 86.8113 13.6039C86.2976 13.6039 85.815 13.7051 85.3636 13.9076C84.9277 14.11 84.5464 14.3981 84.2195 14.7719C83.8926 15.13 83.6357 15.5583 83.4489 16.0566C83.2621 16.555 83.1687 17.1078 83.1687 17.7152C83.1687 18.3069 83.2621 18.8598 83.4489 19.3737C83.6513 19.872 83.9159 20.3081 84.2428 20.6818C84.5853 21.0556 84.9744 21.3515 85.4103 21.5695C85.8617 21.772 86.3365 21.8732 86.8346 21.8732C87.1459 21.8732 87.4573 21.8342 87.7686 21.7564C88.0799 21.6629 88.3601 21.5384 88.6092 21.3826C88.8738 21.2269 89.0995 21.0478 89.2863 20.8454C89.4887 20.6429 89.6365 20.4249 89.7299 20.1913L92.2517 20.9388C91.847 21.8576 91.1698 22.6129 90.2203 23.2047C89.2707 23.7809 88.15 24.069 86.858 24.069C85.9084 24.069 85.0445 23.8977 84.2662 23.5551C83.4878 23.2125 82.8185 22.7531 82.2581 22.1769C81.7133 21.5851 81.2852 20.9076 80.9739 20.1446C80.6781 19.3815 80.5302 18.5717 80.5302 17.7152Z" fill="white"/>
<path d="M97.6126 24.069C97.0211 24.069 96.4685 23.9755 95.9548 23.7887C95.4567 23.5862 95.0208 23.3137 94.6472 22.9711C94.2892 22.6285 94.0012 22.2236 93.7833 21.7564C93.5809 21.2892 93.4797 20.7831 93.4797 20.238C93.4797 19.6618 93.6043 19.1401 93.8533 18.6729C94.1024 18.2057 94.4526 17.8008 94.9041 17.4582C95.371 17.1156 95.9159 16.8509 96.5385 16.664C97.1767 16.4771 97.8772 16.3837 98.64 16.3837C99.2159 16.3837 99.7841 16.4382 100.345 16.5472C100.905 16.6406 101.411 16.773 101.862 16.9443V16.1034C101.862 15.2001 101.605 14.4993 101.092 14.001C100.578 13.4871 99.8386 13.2301 98.8735 13.2301C98.2197 13.2301 97.5737 13.3547 96.9355 13.6039C96.3128 13.8375 95.6668 14.1801 94.9975 14.6317L94.2036 12.9965C95.7758 11.9376 97.4102 11.4081 99.107 11.4081C100.788 11.4081 102.096 11.8363 103.03 12.6929C103.964 13.5494 104.431 14.7796 104.431 16.3837V20.7986C104.431 21.3437 104.656 21.624 105.108 21.6396V23.8354C104.859 23.8821 104.641 23.9132 104.454 23.9288C104.283 23.9444 104.112 23.9522 103.94 23.9522C103.442 23.9522 103.053 23.8276 102.773 23.5784C102.508 23.3293 102.345 23.01 102.283 22.6207L102.212 21.8498C101.668 22.5662 100.991 23.119 100.181 23.5084C99.3872 23.8821 98.531 24.069 97.6126 24.069ZM98.3131 22.1769C98.9357 22.1769 99.5195 22.0678 100.064 21.8498C100.625 21.6162 101.061 21.297 101.372 20.8921C101.699 20.6118 101.862 20.3159 101.862 20.0044V18.3926C101.426 18.2213 100.959 18.0889 100.461 17.9955C99.9787 17.902 99.5039 17.8553 99.0369 17.8553C98.1185 17.8553 97.3635 18.0578 96.772 18.4627C96.1961 18.852 95.9081 19.3737 95.9081 20.0278C95.9081 20.6351 96.1338 21.149 96.5852 21.5695C97.0367 21.9744 97.6126 22.1769 98.3131 22.1769Z" fill="white"/>
<path d="M114.482 24.069C113.501 24.069 112.637 23.8354 111.89 23.3682C111.143 22.901 110.551 22.2936 110.115 21.5461V28.811H107.547V11.6183H109.812V13.8141C110.279 13.0822 110.878 12.4982 111.61 12.0621C112.357 11.6261 113.197 11.4081 114.131 11.4081C114.972 11.4081 115.742 11.5794 116.443 11.922C117.143 12.2646 117.75 12.724 118.264 13.3002C118.778 13.8764 119.175 14.546 119.455 15.3091C119.751 16.0722 119.899 16.8742 119.899 17.7152C119.899 18.6028 119.766 19.436 119.502 20.2146C119.237 20.9777 118.863 21.6474 118.381 22.2236C117.898 22.7842 117.322 23.2358 116.653 23.5784C115.999 23.9055 115.275 24.069 114.482 24.069ZM113.641 21.8732C114.186 21.8732 114.676 21.7564 115.112 21.5228C115.563 21.2892 115.945 20.9777 116.256 20.5884C116.583 20.1991 116.832 19.7552 117.003 19.2569C117.175 18.7586 117.26 18.2447 117.26 17.7152C117.26 17.1545 117.159 16.6251 116.957 16.1267C116.77 15.6284 116.505 15.1923 116.163 14.8186C115.836 14.4448 115.439 14.1489 114.972 13.9309C114.505 13.7129 113.999 13.6039 113.454 13.6039C113.127 13.6039 112.785 13.6662 112.427 13.7908C112.069 13.9153 111.734 14.0866 111.423 14.3047C111.111 14.5227 110.839 14.7796 110.606 15.0755C110.372 15.3558 110.209 15.6673 110.115 16.0099V19.2102C110.271 19.5839 110.473 19.9343 110.722 20.2614C110.971 20.5884 111.244 20.8687 111.54 21.1023C111.851 21.3359 112.186 21.5228 112.544 21.6629C112.902 21.8031 113.267 21.8732 113.641 21.8732Z" fill="white"/>
<path d="M127.742 24.069C126.793 24.069 125.929 23.9055 125.151 23.5784C124.372 23.2358 123.703 22.7764 123.143 22.2002C122.598 21.624 122.17 20.9544 121.858 20.1913C121.563 19.4282 121.415 18.6184 121.415 17.7619C121.415 16.9054 121.563 16.0956 121.858 15.3325C122.17 14.5538 122.598 13.8764 123.143 13.3002C123.703 12.7084 124.372 12.249 125.151 11.922C125.929 11.5794 126.801 11.4081 127.766 11.4081C128.715 11.4081 129.571 11.5794 130.334 11.922C131.113 12.2646 131.774 12.724 132.319 13.3002C132.864 13.8608 133.276 14.5227 133.556 15.2858C133.852 16.0333 134 16.8197 134 17.6451C134 17.832 133.992 18.0111 133.977 18.1824C133.961 18.3381 133.946 18.4705 133.93 18.5795H124.147C124.193 19.1245 124.318 19.6151 124.52 20.0511C124.738 20.4872 125.011 20.8687 125.337 21.1957C125.68 21.5072 126.061 21.7486 126.482 21.9199C126.917 22.0912 127.369 22.1769 127.836 22.1769C128.178 22.1769 128.513 22.1379 128.84 22.0601C129.182 21.9666 129.494 21.842 129.774 21.6863C130.054 21.515 130.303 21.3125 130.521 21.0789C130.739 20.8454 130.91 20.5884 131.035 20.3081L133.23 20.9388C132.809 21.8576 132.109 22.6129 131.128 23.2047C130.163 23.7809 129.034 24.069 127.742 24.069ZM131.455 16.8041C131.408 16.2902 131.276 15.8153 131.058 15.3792C130.856 14.9432 130.591 14.5772 130.264 14.2813C129.937 13.9698 129.556 13.7285 129.12 13.5572C128.684 13.3859 128.225 13.3002 127.742 13.3002C127.26 13.3002 126.801 13.3859 126.365 13.5572C125.945 13.7285 125.571 13.9698 125.244 14.2813C124.917 14.5772 124.653 14.9432 124.45 15.3792C124.248 15.8153 124.123 16.2902 124.077 16.8041H131.455Z" fill="white"/>
<path d="M56.1353 47.195V30.6097H63.3503C64.0974 30.6097 64.7824 30.7654 65.405 31.0769C66.0432 31.3883 66.5881 31.801 67.0395 32.3149C67.4909 32.8133 67.8412 33.3895 68.0902 34.0435C68.3548 34.682 68.4872 35.3361 68.4872 36.0057C68.4872 36.5664 68.4093 37.1036 68.2537 37.6176C68.098 38.1315 67.8801 38.6064 67.5999 39.0425C67.3197 39.4785 66.9772 39.8601 66.5725 40.1871C66.1678 40.4986 65.7241 40.7322 65.2416 40.8879L69.1409 47.195H66.1756L62.5797 41.4252H58.7504V47.195H56.1353ZM58.7504 39.1126H63.3269C63.7005 39.1126 64.0352 39.0347 64.3309 38.879C64.6423 38.7077 64.9069 38.4819 65.1248 38.2015C65.3428 37.9057 65.514 37.5708 65.6385 37.1971C65.763 36.8233 65.8253 36.4262 65.8253 36.0057C65.8253 35.5853 65.7475 35.1882 65.5918 34.8144C65.4517 34.4406 65.2571 34.1136 65.0081 33.8333C64.7746 33.553 64.4944 33.335 64.1675 33.1792C63.8562 33.0079 63.5293 32.9223 63.1868 32.9223H58.7504V39.1126Z" fill="white"/>
<path d="M76.3906 47.4286C75.4255 47.4286 74.5538 47.2573 73.7755 46.9147C73.0127 46.5721 72.3589 46.1127 71.8141 45.5365C71.2693 44.9603 70.849 44.2906 70.5532 43.5275C70.2575 42.7489 70.1096 41.9391 70.1096 41.0981C70.1096 40.2572 70.2575 39.4552 70.5532 38.6921C70.849 37.9134 71.2693 37.236 71.8141 36.6598C72.3745 36.0836 73.0361 35.6242 73.7988 35.2816C74.5771 34.939 75.4411 34.7677 76.3906 34.7677C77.3402 34.7677 78.1963 34.939 78.9591 35.2816C79.7374 35.6242 80.399 36.0836 80.9438 36.6598C81.5042 37.236 81.9322 37.9134 82.228 38.6921C82.5238 39.4552 82.6716 40.2572 82.6716 41.0981C82.6716 41.9391 82.5238 42.7489 82.228 43.5275C81.9322 44.2906 81.5042 44.9603 80.9438 45.5365C80.399 46.1127 79.7374 46.5721 78.9591 46.9147C78.1963 47.2573 77.3402 47.4286 76.3906 47.4286ZM72.7481 41.1215C72.7481 41.7133 72.8415 42.2583 73.0283 42.7567C73.2151 43.255 73.4719 43.691 73.7988 44.0648C74.1257 44.423 74.5071 44.7111 74.9429 44.9291C75.3944 45.1316 75.8769 45.2328 76.3906 45.2328C76.9043 45.2328 77.3791 45.1316 77.8149 44.9291C78.2664 44.7111 78.6555 44.4152 78.9824 44.0415C79.3093 43.6677 79.5661 43.2316 79.7529 42.7333C79.9397 42.235 80.0331 41.6899 80.0331 41.0981C80.0331 40.5219 79.9397 39.9847 79.7529 39.4863C79.5661 38.9724 79.3093 38.5286 78.9824 38.1548C78.6555 37.7811 78.2664 37.493 77.8149 37.2905C77.3791 37.0725 76.9043 36.9635 76.3906 36.9635C75.8925 36.9635 75.4177 37.0725 74.9663 37.2905C74.5304 37.5085 74.1491 37.8044 73.8222 38.1782C73.4953 38.5519 73.2306 38.9958 73.0283 39.5097C72.8415 40.008 72.7481 40.5453 72.7481 41.1215Z" fill="white"/>
<path d="M90.4368 47.4286C89.4717 47.4286 88.6 47.2573 87.8217 46.9147C87.0589 46.5721 86.4051 46.1127 85.8603 45.5365C85.3155 44.9603 84.8952 44.2906 84.5994 43.5275C84.3037 42.7489 84.1558 41.9391 84.1558 41.0981C84.1558 40.2572 84.3037 39.4552 84.5994 38.6921C84.8952 37.9134 85.3155 37.236 85.8603 36.6598C86.4207 36.0836 87.0823 35.6242 87.845 35.2816C88.6233 34.939 89.4873 34.7677 90.4368 34.7677C91.3864 34.7677 92.2425 34.939 93.0053 35.2816C93.7836 35.6242 94.4452 36.0836 94.99 36.6598C95.5504 37.236 95.9784 37.9134 96.2742 38.6921C96.57 39.4552 96.7178 40.2572 96.7178 41.0981C96.7178 41.9391 96.57 42.7489 96.2742 43.5275C95.9784 44.2906 95.5504 44.9603 94.99 45.5365C94.4452 46.1127 93.7836 46.5721 93.0053 46.9147C92.2425 47.2573 91.3864 47.4286 90.4368 47.4286ZM86.7943 41.1215C86.7943 41.7133 86.8877 42.2583 87.0745 42.7567C87.2613 43.255 87.5181 43.691 87.845 44.0648C88.1719 44.423 88.5533 44.7111 88.9891 44.9291C89.4406 45.1316 89.9231 45.2328 90.4368 45.2328C90.9505 45.2328 91.4253 45.1316 91.8611 44.9291C92.3126 44.7111 92.7017 44.4152 93.0286 44.0415C93.3555 43.6677 93.6124 43.2316 93.7991 42.7333C93.9859 42.235 94.0793 41.6899 94.0793 41.0981C94.0793 40.5219 93.9859 39.9847 93.7991 39.4863C93.6124 38.9724 93.3555 38.5286 93.0286 38.1548C92.7017 37.7811 92.3126 37.493 91.8611 37.2905C91.4253 37.0725 90.9505 36.9635 90.4368 36.9635C89.9387 36.9635 89.4639 37.0725 89.0125 37.2905C88.5766 37.5085 88.1953 37.8044 87.8684 38.1782C87.5415 38.5519 87.2768 38.9958 87.0745 39.5097C86.8877 40.008 86.7943 40.5453 86.7943 41.1215Z" fill="white"/>
<path d="M117.676 47.195H115.107V40.3506C115.107 39.2138 114.92 38.3806 114.547 37.8511C114.173 37.3217 113.628 37.0569 112.912 37.0569C112.181 37.0569 111.511 37.3294 110.904 37.8745C110.313 38.404 109.885 39.097 109.62 39.9535V47.195H107.051V40.3506C107.051 39.1982 106.865 38.3651 106.491 37.8511C106.117 37.3217 105.58 37.0569 104.88 37.0569C104.148 37.0569 103.479 37.3217 102.872 37.8511C102.265 38.3806 101.829 39.0736 101.564 39.9302V47.195H98.9959V34.9779H101.331V37.4307C101.813 36.5742 102.444 35.9201 103.222 35.4685C104.016 35.0013 104.919 34.7677 105.931 34.7677C106.943 34.7677 107.736 35.0324 108.312 35.5619C108.904 36.0914 109.27 36.7532 109.41 37.5475C109.923 36.6442 110.569 35.959 111.348 35.4918C112.126 35.0091 113.013 34.7677 114.01 34.7677C114.726 34.7677 115.317 34.9078 115.784 35.1882C116.267 35.4529 116.648 35.8111 116.928 36.2627C117.209 36.7143 117.403 37.2438 117.512 37.8511C117.621 38.4429 117.676 39.0736 117.676 39.7433V47.195Z" fill="white"/>
<rect x="46.0483" y="21.5357" width="21.5741" height="2.28794" fill="white"/>
<rect x="46.0554" y="30.5619" width="16.0214" height="2.28097" fill="white"/>
<path fill-rule="evenodd" clip-rule="evenodd" d="M28.9058 42.5001L12.2887 33.8918L12.5764 33.3523L29.1935 41.9606L28.9058 42.5001Z" fill="white"/>
<path fill-rule="evenodd" clip-rule="evenodd" d="M38.7832 34.0653V16.1533H39.4015V34.0653H38.7832Z" fill="white"/>
<path fill-rule="evenodd" clip-rule="evenodd" d="M38.474 22.9308L29.1302 28.3991L28.8634 27.8378L38.1584 22.4067L38.474 22.9308Z" fill="white"/>
<path fill-rule="evenodd" clip-rule="evenodd" d="M37.5379 15.5627L28.3569 10.3311L16.8252 17.0268L25.8061 22.1771L37.5379 15.5627ZM28.354 9.62545L15.6014 17.0301L25.8035 22.8807L38.7832 15.5627L38.247 15.2627L28.354 9.62545Z" fill="white"/>
<path d="M12.3868 33.9268L12.1234 33.7744L11.9688 22.1189L4.23989 17.6243M12.3868 33.9268L22.5849 28.1297M12.3868 33.9268L22.5849 39.2251M23.0984 27.8378V39.4115L22.5849 39.2251M23.0984 27.8378L4.23989 17.0301V13.9677L4.70363 13.663L25.8808 1.70277L46.7286 14.1201V21.5079H47.4006L47.4253 13.7107L25.8813 1.00006L4.37806 13.1444L3.62158 13.6415V38.7831L26.3453 51L28.6632 49.7472V49.7591L29.1178 49.5014L29.3588 49.3712V49.3648L47.3458 38.8507L47.3719 31.3572H46.7286V38.4975L29.2815 48.7056V42.5351L42.0334 35.4537L28.8634 27.8378M23.0984 27.8378L22.5849 28.1297M28.8634 27.8378L28.7405 27.9086V49.0103L26.3445 50.3054L4.23989 38.4214V17.6243M28.8634 27.8378L29.1302 28.3991L38.474 22.9308L38.1584 22.4067L28.8634 27.8378ZM4.23989 17.6243V17.3958M22.5849 28.1297V39.2251M38.247 15.2627L28.354 9.62545L15.6014 17.0301L25.8035 22.8807L38.7832 15.5627L38.247 15.2627ZM21.8645 27.8356L12.7318 33.0271L12.5925 22.5219L21.8645 27.8356ZM40.8269 35.4708L29.3588 41.7722V28.8234L40.8269 35.4708ZM28.3569 10.3311L37.5379 15.5627L25.8061 22.1771L16.8252 17.0268L28.3569 10.3311ZM12.2887 33.8918L28.9058 42.5001L29.1935 41.9606L12.5764 33.3523L12.2887 33.8918ZM38.7832 16.1533V34.0653H39.4015V16.1533H38.7832Z" stroke="white" stroke-width="1.5"/>
</svg>
